# xmcd
#
# Track frame offsets:
#	150
#	14727
#	40481
#	56816
#	70123
#	87865
#	98708
#	120808
#	135384
#	154532
#	167883
#	177616
#	192029
#	205404
#	218159
#	227304
#	243105
#	258290
#	269507
#	280593
#
# Disc length: 3928 seconds
#
# Revision: 0
# Processed by: cddbd v1.5.1PL0 Copyright (c) Steve Scherf et al.
# Submitted via: dBpowerAMP V4.0
#
DISCID=110f5614
DTITLE=聖經-舊約 - Disc 46
DYEAR=1900
DGENRE=
TTITLE0=傳道書第1章
TTITLE1=傳道書第2章
TTITLE2=傳道書第3章
TTITLE3=傳道書第4章
TTITLE4=傳道書第5章
TTITLE5=傳道書第6章
TTITLE6=傳道書第7章
TTITLE7=傳道書第8章
TTITLE8=傳道書第9章
TTITLE9=傳道書第10章
TTITLE10=傳道書第11章
TTITLE11=傳道書第12章
TTITLE12=雅歌第1章
TTITLE13=雅歌第2章
TTITLE14=雅歌第3章
TTITLE15=雅歌第4章
TTITLE16=雅歌第5章
TTITLE17=雅歌第6章
TTITLE18=雅歌第7章
TTITLE19=雅歌第8章
EXTD=
EXTT0=
EXTT1=
EXTT2=
EXTT3=
EXTT4=
EXTT5=
EXTT6=
EXTT7=
EXTT8=
EXTT9=
EXTT10=
EXTT11=
EXTT12=
EXTT13=
EXTT14=
EXTT15=
EXTT16=
EXTT17=
EXTT18=
EXTT19=
PLAYORDER=
